<svg width="161" height="161" viewBox="0 0 161 161" fill="none" xmlns="http://www.w3.org/2000/svg">
<path d="M80.0833 13.4167C62.2917 13.4167 45.2288 20.4844 32.6483 33.0649C20.0677 45.6455 13 62.7084 13 80.5C13 98.2916 20.0677 115.355 32.6483 127.935C45.2288 140.516 62.2917 147.583 80.0833 147.583C97.8749 147.583 114.938 140.516 127.518 127.935C140.099 115.355 147.167 98.2916 147.167 80.5C147.167 62.7084 140.099 45.6455 127.518 33.0649C114.938 20.4844 97.8749 13.4167 80.0833 13.4167Z" fill="#4F89B0"/>
<g clip-path="url(#clip0_54_36)">
<path d="M112.672 52.7083H49.2344C44.873 52.7083 41.3443 56.2427 41.3443 60.5625L41.3047 107.687C41.3047 112.007 44.873 115.542 49.2344 115.542H112.672C117.033 115.542 120.602 112.007 120.602 107.687V60.5625C120.602 56.2427 117.033 52.7083 112.672 52.7083ZM111.086 69.3984L83.0545 86.7561C81.7857 87.5415 80.1205 87.5415 78.8518 86.7561L50.8203 69.3984C49.8291 68.7701 49.2344 67.7098 49.2344 66.5709C49.2344 63.9398 52.1287 62.3689 54.3887 63.7434L80.9531 80.1979L107.518 63.7434C109.778 62.3689 112.672 63.9398 112.672 66.5709C112.672 67.7098 112.077 68.7701 111.086 69.3984Z" fill="white"/>
</g>
<defs>
<clipPath id="clip0_54_36">
<rect width="87" height="87" fill="white" transform="translate(37 37)"/>
</clipPath>
</defs>
</svg>
