<svg width="161" height="161" viewBox="0 0 161 161" fill="none" xmlns="http://www.w3.org/2000/svg">
<path d="M80.0833 13.4167C62.2917 13.4167 45.2288 20.4844 32.6483 33.0649C20.0677 45.6455 13 62.7084 13 80.5C13 98.2916 20.0677 115.355 32.6483 127.935C45.2288 140.516 62.2917 147.583 80.0833 147.583C97.8749 147.583 114.938 140.516 127.518 127.935C140.099 115.355 147.167 98.2916 147.167 80.5C147.167 62.7084 140.099 45.6455 127.518 33.0649C114.938 20.4844 97.8749 13.4167 80.0833 13.4167Z" fill="#0A66C2"/>
<path d="M45 63H60V114H45V63ZM52.455 57H52.371C47.895 57 45 53.664 45 49.497C45 45.24 47.985 42 52.542 42C57.105 42 59.916 45.24 60 49.497C60 53.661 57.105 57 52.455 57ZM117 114H102V86.703C102 80.109 98.325 75.609 92.424 75.609C87.921 75.609 85.485 78.645 84.303 81.579C83.871 82.629 84 85.533 84 87V114H69V63H84V70.848C86.163 67.5 89.55 63 98.214 63C108.948 63 116.997 69.75 116.997 84.822L117 114Z" fill="white"/>
</svg>
