<svg width="161" height="161" viewBox="0 0 161 161" fill="none" xmlns="http://www.w3.org/2000/svg">
<path d="M80.0833 13.4167C62.2917 13.4167 45.2288 20.4844 32.6483 33.0649C20.0677 45.6455 13 62.7084 13 80.5C13 98.2916 20.0677 115.355 32.6483 127.935C45.2288 140.516 62.2917 147.583 80.0833 147.583C97.8749 147.583 114.938 140.516 127.518 127.935C140.099 115.355 147.167 98.2916 147.167 80.5C147.167 62.7084 140.099 45.6455 127.518 33.0649C114.938 20.4844 97.8749 13.4167 80.0833 13.4167Z" fill="#386491"/>
<path d="M80 38C79.471 38.0001 78.9473 38.1051 78.4592 38.3089C77.971 38.5127 77.5282 38.8114 77.1562 39.1875L36.8125 74.3906C36.5605 74.5765 36.3557 74.819 36.2146 75.0986C36.0735 75.3781 36 75.6869 36 76C36 76.5304 36.2107 77.0391 36.5858 77.4142C36.9609 77.7893 37.4696 78 38 78H48V110C48 112.208 49.792 114 52 114H68C70.208 114 72 112.208 72 110V86H88V110C88 112.208 89.792 114 92 114H108C110.208 114 112 112.208 112 110V78H122C122.53 78 123.039 77.7893 123.414 77.4142C123.789 77.0391 124 76.5304 124 76C124 75.6869 123.927 75.3781 123.785 75.0986C123.644 74.819 123.439 74.5765 123.188 74.3906L82.8672 39.2109C82.8594 39.2031 82.8516 39.1953 82.8438 39.1875C82.4718 38.8114 82.029 38.5127 81.5408 38.3089C81.0527 38.1051 80.529 38.0001 80 38Z" fill="white"/>
</svg>
