<svg width="161" height="161" viewBox="0 0 161 161" fill="none" xmlns="http://www.w3.org/2000/svg">
<path d="M80.5001 13.4167C62.7085 13.4167 45.6456 20.4844 33.065 33.0649C20.4844 45.6455 13.4167 62.7084 13.4167 80.5C13.4167 98.2916 20.4844 115.355 33.065 127.935C45.6456 140.516 62.7085 147.583 80.5001 147.583C98.2917 147.583 115.355 140.516 127.935 127.935C140.516 115.355 147.583 98.2916 147.583 80.5C147.583 62.7084 140.516 45.6455 127.935 33.0649C115.355 20.4844 98.2917 13.4167 80.5001 13.4167Z" fill="#1D9BF0"/>
<path d="M80.5001 13.4167C62.7085 13.4167 45.6456 20.4844 33.065 33.0649C20.4844 45.6455 13.4167 62.7084 13.4167 80.5C13.4167 98.2916 20.4844 115.355 33.065 127.935C45.6456 140.516 62.7085 147.583 80.5001 147.583C98.2917 147.583 115.355 140.516 127.935 127.935C140.516 115.355 147.583 98.2916 147.583 80.5C147.583 62.7084 140.516 45.6455 127.935 33.0649C115.355 20.4844 98.2917 13.4167 80.5001 13.4167Z" fill="#1D9BF0"/>
<path d="M120.75 57.4233C117.792 58.7348 114.045 59.9658 110.688 60.375C114.102 58.3491 119.519 54.1295 120.75 50.3125C117.56 52.1875 111.791 54.1899 108.028 54.9144C105.022 51.728 100.736 50.3125 95.9862 50.3125C86.8629 50.3125 80.5 58.0439 80.5 67.0833V73.7917C67.0833 73.7917 54.0021 63.5715 45.8615 53.6667C44.4293 56.085 43.6243 58.9159 43.6243 61.9079C43.6243 68.0091 49.2291 74.2009 53.6667 77.1458C50.9599 77.062 45.8347 74.9958 43.6042 73.7917C43.6042 73.8453 43.6042 73.9124 43.6042 73.9829C43.6042 81.9222 49.1754 87.3123 56.7257 88.815C55.3471 89.194 53.6667 90.5625 47.1998 90.5625C49.2995 97.0528 59.8551 100.484 67.0833 100.625C61.4282 105.009 51.3456 107.333 43.6042 107.333C42.2659 107.333 41.5414 107.407 40.25 107.256C47.5554 111.885 57.7588 114.042 67.0833 114.042C97.462 114.042 114.042 90.8375 114.042 69.1965C114.042 68.4854 114.018 66.1039 113.981 65.4062C117.228 63.1187 118.543 60.7238 120.75 57.4233Z" fill="white"/>
</svg>
